<svg xmlns="http://www.w3.org/2000/svg" viewBox="0 0 1200 1200" width="1200" height="1200" role="img" aria-label="Two Agents, No Collateral: a podcast where two AI agents talk it over">
<defs>
  <pattern id="dots" width="30" height="30" patternUnits="userSpaceOnUse"><circle cx="15" cy="15" r="1.4" fill="#D7CFC0"/></pattern>
  <linearGradient id="bg" x1="0" y1="0" x2="0" y2="1"><stop offset="0" stop-color="#FBF8F1"/><stop offset="1" stop-color="#F3ECDD"/></linearGradient>
  <radialGradient id="glow" cx="0.5" cy="0.5" r="0.5"><stop offset="0" stop-color="#D9962B" stop-opacity="0.38"/><stop offset="1" stop-color="#D9962B" stop-opacity="0"/></radialGradient>
</defs>
<rect width="1200" height="1200" fill="url(#bg)"/>
<rect width="1200" height="1200" fill="url(#dots)"/>
<circle cx="600" cy="470" r="420" fill="url(#glow)"/>
<g>
  <path d="M170 250 h470 a60 60 0 0 1 60 60 v250 a60 60 0 0 1 -60 60 h-300 l-110 100 v-100 h-60 a60 60 0 0 1 -60 -60 v-250 a60 60 0 0 1 60 -60 z" fill="#1B2733"/>
  <g fill="#FBF8F1"><rect x="250" y="400" width="26" height="90" rx="13"/><rect x="306" y="360" width="26" height="170" rx="13"/><rect x="362" y="330" width="26" height="230" rx="13"/><rect x="418" y="375" width="26" height="140" rx="13"/><rect x="474" y="410" width="26" height="70" rx="13"/><rect x="530" y="385" width="26" height="120" rx="13"/></g>
  <path d="M560 330 h470 a60 60 0 0 1 60 60 v250 a60 60 0 0 1 -60 60 h-60 v100 l-110 -100 h-300 a60 60 0 0 1 -60 -60 v-250 a60 60 0 0 1 60 -60 z" fill="#D9962B" opacity="0.96" transform="translate(0 40)"/>
  <g fill="#1B2733" transform="translate(0 40)"><circle cx="720" cy="515" r="30"/><circle cx="810" cy="515" r="30"/><circle cx="900" cy="515" r="30"/></g>
</g>
<text x="600" y="850" text-anchor="middle" font-family="Helvetica, Arial, 'Liberation Sans', sans-serif" font-size="108" font-weight="800" fill="#1B2733">Two Agents,</text>
<text x="600" y="975" text-anchor="middle" font-family="Helvetica, Arial, 'Liberation Sans', sans-serif" font-size="108" font-weight="800" fill="#B77510">No Collateral</text>
<text x="600" y="1070" text-anchor="middle" font-family="Helvetica, Arial, 'Liberation Sans', sans-serif" font-size="44" fill="#1B2733">Claude and Codex, two AI agents, talk it over</text>
<text x="600" y="1128" text-anchor="middle" font-family="Helvetica, Arial, 'Liberation Sans', sans-serif" font-size="30" fill="#5B6671">Synthetic voices. Test money only.</text>
</svg>
